<?xml version="1.0" encoding="UTF-8" standalone="no"?>
<!DOCTYPE svg PUBLIC "-//W3C//DTD SVG 1.1//EN"
 "http://www.w3.org/Graphics/SVG/1.1/DTD/svg11.dtd">
<!-- Generated by graphviz version 2.47.0 (20210316.0004)
 -->
<!-- Title: dependencies Pages: 1 -->
<svg width="995pt" height="284pt"
 viewBox="0.00 0.00 995.00 284.00" xmlns="http://www.w3.org/2000/svg" xmlns:xlink="http://www.w3.org/1999/xlink">
<g id="graph0" class="graph" transform="scale(1 1) rotate(0) translate(4 280)">
<title>dependencies</title>
<polygon fill="white" stroke="transparent" points="-4,4 -4,-280 991,-280 991,4 -4,4"/>
<text text-anchor="start" x="472.51" y="-42.4" font-family="Times-12" font-weight="bold" font-size="14.00">Legend</text>
<polygon fill="#ffffb3" stroke="transparent" points="259.5,-10 259.5,-30 279.5,-30 279.5,-10 259.5,-10"/>
<text text-anchor="start" x="283.13" y="-15.4" font-family="Times-12" font-size="14.00"> &#160;Declarations</text>
<polygon fill="#8dd3c7" stroke="transparent" points="372.5,-10 372.5,-30 392.5,-30 392.5,-10 372.5,-10"/>
<text text-anchor="start" x="396.23" y="-15.4" font-family="Times-12" font-size="14.00"> &#160;Module</text>
<polygon fill="#80b1d3" stroke="transparent" points="458.5,-10 458.5,-30 478.5,-30 478.5,-10 458.5,-10"/>
<text text-anchor="start" x="482.28" y="-15.4" font-family="Times-12" font-size="14.00"> &#160;Bootstrap</text>
<polygon fill="#fdb462" stroke="transparent" points="555.5,-10 555.5,-30 575.5,-30 575.5,-10 555.5,-10"/>
<text text-anchor="start" x="579.17" y="-15.4" font-family="Times-12" font-size="14.00"> &#160;Providers</text>
<polygon fill="#fb8072" stroke="transparent" points="651.5,-10 651.5,-30 671.5,-30 671.5,-10 651.5,-10"/>
<text text-anchor="start" x="675.23" y="-15.4" font-family="Times-12" font-size="14.00"> &#160;Exports</text>
<g id="clust1" class="cluster">
<title>cluster_AppModule</title>
<polygon fill="none" stroke="black" stroke-dasharray="1,5" points="8,-70 8,-195 154,-195 154,-70 8,-70"/>
</g>
<g id="clust6" class="cluster">
<title>cluster_AppModule_providers</title>
<polygon fill="none" stroke="black" points="16,-78 16,-130 146,-130 146,-78 16,-78"/>
</g>
<g id="clust7" class="cluster">
<title>cluster_TemplatePlaygroundModule</title>
<polygon fill="none" stroke="black" stroke-dasharray="1,5" points="162,-70 162,-268 979,-268 979,-70 162,-70"/>
</g>
<g id="clust8" class="cluster">
<title>cluster_TemplatePlaygroundModule_declarations</title>
<polygon fill="none" stroke="black" points="757,-78 757,-130 971,-130 971,-78 757,-78"/>
</g>
<g id="clust12" class="cluster">
<title>cluster_TemplatePlaygroundModule_bootstrap</title>
<polygon fill="none" stroke="black" points="448,-208 448,-260 666,-260 666,-208 448,-208"/>
</g>
<g id="clust13" class="cluster">
<title>cluster_TemplatePlaygroundModule_providers</title>
<polygon fill="none" stroke="black" points="170,-78 170,-130 749,-130 749,-78 170,-78"/>
</g>
<!-- AppService -->
<g id="node1" class="node">
<title>AppService</title>
<ellipse fill="#fdb462" stroke="black" cx="81" cy="-104" rx="56.74" ry="18"/>
<text text-anchor="middle" x="81" y="-99.8" font-family="Times,serif" font-size="14.00">AppService</text>
</g>
<!-- AppModule -->
<g id="node2" class="node">
<title>AppModule</title>
<polygon fill="#8dd3c7" stroke="black" points="122.66,-187 119.66,-191 98.66,-191 95.66,-187 39.34,-187 39.34,-151 122.66,-151 122.66,-187"/>
<text text-anchor="middle" x="81" y="-164.8" font-family="Times,serif" font-size="14.00">AppModule</text>
</g>
<!-- AppService&#45;&gt;AppModule -->
<g id="edge1" class="edge">
<title>AppService&#45;&gt;AppModule</title>
<path fill="none" stroke="black" d="M81,-122.11C81,-122.11 81,-140.99 81,-140.99"/>
<polygon fill="black" stroke="black" points="77.5,-140.99 81,-150.99 84.5,-140.99 77.5,-140.99"/>
</g>
<!-- TemplatePlaygroundComponent -->
<g id="node3" class="node">
<title>TemplatePlaygroundComponent</title>
<polygon fill="#ffffb3" stroke="black" points="963.25,-122 764.75,-122 764.75,-86 963.25,-86 963.25,-122"/>
<text text-anchor="middle" x="864" y="-99.8" font-family="Times,serif" font-size="14.00">TemplatePlaygroundComponent</text>
</g>
<!-- TemplatePlaygroundModule -->
<g id="node4" class="node">
<title>TemplatePlaygroundModule</title>
<polygon fill="#8dd3c7" stroke="black" points="645.47,-187 642.47,-191 621.47,-191 618.47,-187 468.53,-187 468.53,-151 645.47,-151 645.47,-187"/>
<text text-anchor="middle" x="557" y="-164.8" font-family="Times,serif" font-size="14.00">TemplatePlaygroundModule</text>
</g>
<!-- TemplatePlaygroundComponent&#45;&gt;TemplatePlaygroundModule -->
<g id="edge2" class="edge">
<title>TemplatePlaygroundComponent&#45;&gt;TemplatePlaygroundModule</title>
<path fill="none" stroke="black" d="M864,-122.11C864,-141.34 864,-169 864,-169 864,-169 655.8,-169 655.8,-169"/>
<polygon fill="black" stroke="black" points="655.8,-165.5 645.8,-169 655.8,-172.5 655.8,-165.5"/>
</g>
<!-- TemplatePlaygroundComponent  -->
<g id="node5" class="node">
<title>TemplatePlaygroundComponent </title>
<polygon fill="#80b1d3" stroke="black" points="658.25,-252 455.75,-252 455.75,-216 658.25,-216 658.25,-252"/>
<text text-anchor="middle" x="557" y="-229.8" font-family="Times,serif" font-size="14.00">TemplatePlaygroundComponent </text>
</g>
<!-- TemplatePlaygroundModule&#45;&gt;TemplatePlaygroundComponent  -->
<g id="edge3" class="edge">
<title>TemplatePlaygroundModule&#45;&gt;TemplatePlaygroundComponent </title>
<path fill="none" stroke="black" stroke-dasharray="1,5" d="M557,-187.11C557,-187.11 557,-205.99 557,-205.99"/>
<polygon fill="black" stroke="black" points="553.5,-205.99 557,-215.99 560.5,-205.99 553.5,-205.99"/>
</g>
<!-- HbsRenderService -->
<g id="node6" class="node">
<title>HbsRenderService</title>
<ellipse fill="#fdb462" stroke="black" cx="658" cy="-104" rx="83.37" ry="18"/>
<text text-anchor="middle" x="658" y="-99.8" font-family="Times,serif" font-size="14.00">HbsRenderService</text>
</g>
<!-- HbsRenderService&#45;&gt;TemplatePlaygroundModule -->
<g id="edge4" class="edge">
<title>HbsRenderService&#45;&gt;TemplatePlaygroundModule</title>
<path fill="none" stroke="black" d="M610.03,-118.75C610.03,-118.75 610.03,-140.59 610.03,-140.59"/>
<polygon fill="black" stroke="black" points="606.53,-140.59 610.03,-150.59 613.53,-140.59 606.53,-140.59"/>
</g>
<!-- TemplateEditorService -->
<g id="node7" class="node">
<title>TemplateEditorService</title>
<ellipse fill="#fdb462" stroke="black" cx="456" cy="-104" rx="100.7" ry="18"/>
<text text-anchor="middle" x="456" y="-99.8" font-family="Times,serif" font-size="14.00">TemplateEditorService</text>
</g>
<!-- TemplateEditorService&#45;&gt;TemplatePlaygroundModule -->
<g id="edge5" class="edge">
<title>TemplateEditorService&#45;&gt;TemplatePlaygroundModule</title>
<path fill="none" stroke="black" d="M512.56,-119.08C512.56,-119.08 512.56,-140.76 512.56,-140.76"/>
<polygon fill="black" stroke="black" points="509.06,-140.76 512.56,-150.76 516.06,-140.76 509.06,-140.76"/>
</g>
<!-- ZipExportService -->
<g id="node8" class="node">
<title>ZipExportService</title>
<ellipse fill="#fdb462" stroke="black" cx="258" cy="-104" rx="79.87" ry="18"/>
<text text-anchor="middle" x="258" y="-99.8" font-family="Times,serif" font-size="14.00">ZipExportService</text>
</g>
<!-- ZipExportService&#45;&gt;TemplatePlaygroundModule -->
<g id="edge6" class="edge">
<title>ZipExportService&#45;&gt;TemplatePlaygroundModule</title>
<path fill="none" stroke="black" d="M258,-122.11C258,-141.34 258,-169 258,-169 258,-169 458.5,-169 458.5,-169"/>
<polygon fill="black" stroke="black" points="458.5,-172.5 468.5,-169 458.5,-165.5 458.5,-172.5"/>
</g>
</g>
</svg>
